PathFileType	4	(X/Y/Z)	D:\TRACE\v60_Jaco2_6-2-23\JustBodyDRS_Motion3_1-v60.trc
DataRate	CameraRate	NumFrames	NumMarkers	Units	OrigDataRate	OrigDataStartFrame	OrigNumFrames
100.00	100.00	      31	9	mm	100.00	4376	      7000
Frame#	Time	front left toe			Front right toe			aft left toe			aft right toe			Arm			FL body			FR body			AL Body			AR Body			
		X1	Y1	Z1	X2	Y2	Z2	X3	Y3	Z3	X4	Y4	Z4	X5	Y5	Z5	X6	Y6	Z6	X7	Y7	Z7	X8	Y8	Z8	X9	Y9	Z9	

4376	43.750	-158.35564	-1.55233	-196.66945	225.00583	-14.23211	-210.72275	-139.45432	68.20304	420.45282	230.15308	68.09900	412.21939	38.69362	1177.98010	-290.06830	-44.93470	537.83862	-343.05618	114.07008	537.40033	-345.45087	-23.36887	616.88849	598.97797	128.52782	606.20801	595.92865	
4377	43.760	-158.73201	-8.11501	-197.16617	225.04543	-14.23390	-210.73470	-139.12207	68.31248	420.47751	230.72505	66.04742	412.38593	39.53004	1178.03381	-290.21817	-44.60452	537.62305	-343.25986	114.55215	537.35199	-345.49603	-24.19462	617.43701	598.54291	127.86157	607.33643	595.39929	
4378	43.770	-159.00735	-10.05260	-199.54572	225.26974	-14.31860	-210.62283	-138.94867	68.60171	420.34988	231.39008	66.91750	411.99448	39.48450	1178.05225	-290.67160	-44.30059	537.13318	-343.44012	114.89431	537.27655	-345.61734	-24.41416	618.75787	598.45160	127.74402	608.96136	595.63495	
4379	43.780	-159.18510	-11.96465	-198.74365	225.35364	-14.25766	-210.56787	-137.96030	68.60690	420.21030	231.29184	67.01315	412.54678	39.56535	1177.97021	-291.64713	-43.68803	537.37592	-343.55475	115.09639	537.46478	-345.67059	-24.77339	619.91669	598.17035	127.19051	609.98334	595.11792	
4380	43.790	-159.44492	-11.62513	-199.58766	225.40636	-13.31248	-210.99121	-137.73174	69.57615	419.81500	231.02892	67.08924	412.89569	39.26149	1178.48669	-293.48898	-43.28798	538.94666	-343.76974	115.88890	538.25885	-345.57785	-25.09429	621.04156	598.10443	127.15929	610.61615	595.52753	
4381	43.800	-158.74629	-11.51709	-198.25905	224.31763	-10.25737	-210.22675	-137.94102	72.56005	420.12595	231.30298	66.59949	412.62799	39.34541	1179.51379	-294.60880	-42.40943	540.44714	-343.61777	116.19078	539.96295	-345.73215	-25.40381	621.25537	597.80573	126.91888	610.69653	595.47180	
4382	43.810	-158.50967	-11.50330	-199.51065	220.70282	-4.95638	-208.10727	-135.89644	76.36761	421.81821	231.52672	66.49159	412.41736	39.61378	1181.09546	-294.12384	-42.37255	541.87598	-344.61743	116.83667	541.74536	-346.14413	-25.76214	620.02283	596.58582	126.57460	610.76227	595.24835	
4383	43.820	-158.42406	-11.40956	-199.53546	218.82214	4.68335	-207.45407	-132.72491	85.18526	421.36652	231.67081	66.56566	412.29956	40.80185	1182.73633	-292.59900	-41.91739	542.68494	-345.21204	116.95885	542.65582	-346.94714	-26.02599	620.10706	596.02954	125.69285	611.11749	594.70563	
4384	43.830	-158.51767	-12.17914	-199.54269	218.17731	16.62475	-207.45242	-130.10132	96.92440	420.10324	231.62108	66.45605	412.00104	41.50832	1183.76111	-291.00797	-41.91870	543.11389	-345.67606	116.95312	542.80884	-347.39111	-26.30215	620.66333	595.63550	125.62803	611.50574	594.13153	
4385	43.840	-158.38402	-12.27357	-199.52531	218.69804	29.39204	-208.10605	-128.23314	108.91795	418.41138	231.84822	66.48734	412.16016	42.37774	1184.27588	-290.35150	-41.87407	543.25067	-345.90646	116.92578	542.70459	-347.60022	-26.37718	620.82587	595.44653	126.06614	611.29974	594.01184	
4386	43.850	-158.20039	-12.26234	-199.45662	219.51588	43.17325	-209.77687	-130.14035	122.54427	417.71982	232.40024	66.31644	412.14621	43.19111	1184.01733	-290.79581	-41.99871	543.22815	-345.92303	116.88358	542.70282	-347.62598	-25.85621	620.27277	595.49573	125.77737	610.79510	593.56934	
4387	43.860	-158.13678	-12.29847	-199.44112	220.74899	56.81730	-211.36540	-132.43951	135.73074	416.81885	232.65523	65.99673	412.07916	43.35149	1183.17700	-291.76929	-42.11737	543.08356	-345.76270	116.79189	542.63727	-347.62280	-25.88188	619.55438	595.67944	126.66725	610.31555	593.67786	
4388	43.870	-158.05792	-12.50360	-199.40504	222.90219	70.31733	-211.51961	-135.23297	149.05115	416.11264	232.91927	65.83128	412.15317	42.68417	1182.18274	-292.41241	-42.01297	542.66235	-345.30035	116.83400	542.28564	-347.37582	-25.49380	619.07147	595.79370	126.54517	609.81293	593.79486	
4389	43.880	-158.07466	-12.62724	-199.29788	224.53128	82.70676	-211.82085	-137.00310	162.30101	415.79144	233.08247	65.62798	412.32074	41.40198	1181.48718	-292.65631	-42.61794	542.18195	-345.34439	115.83499	541.85205	-347.15442	-24.93461	618.95813	595.84174	127.06619	609.43481	593.80127	
4390	43.890	-158.08548	-12.66791	-199.25174	225.46332	94.18459	-211.64418	-137.43382	174.15320	416.63022	233.18362	65.47298	412.37595	40.40000	1181.13721	-292.33887	-42.65707	541.61713	-345.05438	115.53854	541.00055	-346.65860	-24.06602	619.30255	596.14349	127.41193	609.47406	593.85022	
4391	43.900	-157.99994	-12.66623	-199.15628	226.32219	105.04335	-211.02863	-138.41431	186.65942	416.47012	233.36093	65.40956	412.43765	40.12765	1181.07837	-291.92645	-42.93709	541.06244	-344.94589	115.30010	540.13251	-346.73840	-23.38774	620.52448	597.44116	127.80444	609.88428	593.97675	
4392	43.910	-157.86462	-12.51314	-199.01379	225.42700	113.38741	-210.76462	-138.99426	196.98470	417.00110	233.49861	65.36980	412.42902	40.44270	1180.65417	-291.93423	-43.05696	540.12518	-344.34338	115.97095	539.67218	-346.53934	-23.35159	620.41223	597.42737	128.34477	610.27728	594.44159	
4393	43.920	-157.66170	-12.37378	-198.76924	225.42075	119.45827	-209.54150	-139.54605	204.13995	417.77661	233.60529	65.31699	412.49445	41.42761	1179.84558	-292.21857	-43.46364	539.56281	-343.86197	115.53881	539.10913	-346.26379	-23.11483	620.46399	597.79315	128.98076	610.37646	594.74872	
4394	43.930	-157.57880	-12.34183	-198.56015	224.79582	122.39745	-208.43941	-140.80205	208.61348	418.57794	233.68394	65.18671	412.51437	42.15942	1178.94019	-292.52454	-43.74424	539.15210	-343.42877	114.43616	538.34985	-345.68820	-22.65073	620.56097	598.29163	129.33612	610.24713	594.99884	
4395	43.940	-157.49449	-12.42066	-198.32655	224.50249	122.73888	-206.78084	-141.76254	209.53986	420.08386	233.73738	64.96023	412.48547	42.72063	1178.25256	-292.89117	-44.18130	538.63837	-342.67569	114.84879	537.57330	-345.28369	-21.90611	620.61365	598.78265	129.86327	610.33655	595.57361	
4396	43.950	-157.41908	-12.45139	-198.05238	224.45154	120.07848	-205.54713	-143.18663	207.98210	421.32697	233.84398	64.80058	412.53326	42.84254	1177.83240	-292.79593	-44.77261	538.12817	-342.12030	114.43182	536.96729	-344.69946	-21.04122	620.97864	599.34430	129.55527	610.75751	596.14685	
4397	43.960	-157.37479	-12.33377	-197.96976	223.69385	115.79766	-204.03914	-143.90331	204.84108	422.99997	233.99609	64.46415	412.60318	42.48120	1177.61206	-292.49805	-44.98936	537.98975	-341.70490	113.79573	536.61755	-344.47336	-20.54446	621.14984	599.64355	131.08638	610.40729	595.94873	
4398	43.970	-157.24071	-12.28534	-197.83981	222.33824	110.02578	-202.98170	-144.47644	200.44174	424.77054	234.26118	64.18764	412.84308	42.35310	1177.38428	-292.21033	-45.29477	537.85736	-341.00223	113.12465	536.35950	-343.85852	-20.04669	621.18140	600.12341	131.56493	610.32367	596.35980	
4399	43.980	-157.20952	-12.29231	-197.73622	220.03580	102.76791	-202.36868	-145.61755	195.48360	426.04813	234.34317	64.04845	412.90567	42.57019	1177.25647	-291.70831	-45.49776	537.83490	-340.42117	112.80170	536.22833	-343.44775	-19.74836	621.06213	600.61615	132.77177	609.83081	596.90082	
4400	43.990	-157.07530	-12.30227	-197.60008	218.82159	95.44826	-201.89153	-145.82948	189.23543	427.48599	234.56932	63.87188	413.01596	43.51654	1177.31909	-290.92889	-45.90652	537.90820	-339.99182	112.35048	536.06458	-342.74966	-19.43684	620.78491	601.17035	133.10085	609.62122	597.39154	
4401	44.000	-156.95529	-12.26311	-197.55031	216.29483	86.59198	-201.71851	-147.22388	182.07655	428.66412	234.90097	63.82899	413.03787	44.32772	1177.29272	-290.31546	-46.21003	537.91852	-339.25534	112.61919	535.88043	-342.63525	-18.86500	620.72400	601.79938	131.67310	609.64563	598.00061	
4402	44.010	-156.84094	-12.15333	-197.41916	216.25070	78.28000	-201.17950	-147.56509	173.26685	429.57822	235.01407	63.68080	412.97290	45.81472	1177.32336	-289.46539	-46.51862	537.91669	-338.62125	111.77121	535.87421	-342.13803	-18.22063	620.69153	602.46625	132.80559	609.19598	598.55505	
4403	44.020	-156.74994	-12.01828	-197.47945	215.63026	69.30292	-201.60219	-147.86266	163.78810	430.37567	235.15334	63.52876	412.96146	46.71486	1177.36230	-288.77951	-47.04913	538.15143	-338.12198	111.16418	535.80188	-341.56793	-17.84266	620.50055	602.77332	133.65102	609.01434	599.16528	
4404	44.030	-156.72127	-11.97275	-197.44225	215.41190	60.34615	-200.32718	-149.20641	154.53267	431.03247	235.45375	63.40565	413.08655	47.30475	1177.18042	-288.17862	-47.34770	538.21533	-337.45099	110.77306	535.51111	-340.96402	-17.43849	620.53925	603.47626	134.74826	608.32294	599.21344	
4405	44.040	-156.69263	-11.99823	-197.32236	214.70522	50.86732	-200.17555	-149.90010	145.40556	432.00305	235.56810	63.17224	413.29333	47.61769	1177.10571	-287.58566	-47.58419	538.21692	-336.75104	110.44903	535.46527	-340.64743	-17.48774	620.26654	604.06732	134.85110	608.18665	600.24646	
4406	44.050	-156.68629	-11.93040	-197.24506	214.16003	41.73796	-198.93192	-151.05011	137.35838	432.05804	235.64900	62.95026	413.31778	47.93285	1177.01489	-286.84106	-47.59469	538.15167	-336.07056	111.22186	535.11163	-340.04776	-17.12515	620.14282	604.63855	134.27269	607.90985	600.69189	
